<?xml version="1.0" standalone="yes"?>

<svg version="1.1" viewBox="0.0 0.0 960.0 720.0" fill="none" stroke="none" stroke-linecap="square" stroke-miterlimit="10" xmlns="http://www.w3.org/2000/svg" xmlns:xlink="http://www.w3.org/1999/xlink"><clipPath id="p.0"><path d="m0 0l960.0 0l0 720.0l-960.0 0l0 -720.0z" clip-rule="nonzero"></path></clipPath><g clip-path="url(#p.0)"><path fill="#000000" fill-opacity="0.0" d="m0 0l960.0 0l0 720.0l-960.0 0z" fill-rule="evenodd"></path><path fill="#e69138" d="m88.362206 198.59842l621.874 0l0 484.20474l-621.874 0z" fill-rule="evenodd"></path><path fill="#b7732c" d="m710.2362 198.59842l161.40161 -161.40157l0 484.2047l-161.40161 161.40161z" fill-rule="evenodd"></path><path fill="#eba75f" d="m88.362206 198.59842l161.40158 -161.40157l621.874 0l-161.40161 161.40157z" fill-rule="evenodd"></path><path fill="#000000" fill-opacity="0.0" d="m88.362206 198.59842l161.40158 -161.40157l621.874 0l0 484.2047l-161.40161 161.40161l-621.874 0zm0 0l621.874 0l161.40161 -161.40157m-161.40161 161.40157l0 484.20474" fill-rule="evenodd"></path><path fill="#000000" fill-opacity="0.0" d="m110.5958 208.46982l607.685 0l0 443.3071l-607.685 0z" fill-rule="evenodd"></path><path fill="#ffffff" d="m354.75204 501.0792l37.890625 9.5625q-11.90625 46.68747 -42.875 71.203094q-30.953125 24.515625 -75.671875 24.515625q-46.296875 0 -75.296875 -18.84375q-29.0 -18.859375 -44.140625 -54.59375q-15.140625 -35.74997 -15.140625 -76.765594q0 -44.734375 17.09375 -78.03125q17.09375 -33.296875 48.625 -50.578125q31.546875 -17.296875 69.4375 -17.296875q42.96875 0 72.265625 21.875q29.296875 21.875 40.828125 61.53125l-37.3125 8.78125q-9.953125 -31.25 -28.90625 -45.5q-18.9375 -14.265625 -47.65625 -14.265625q-33.0 0 -55.171875 15.828125q-22.171875 15.8125 -31.15625 42.484375q-8.984375 26.65625 -8.984375 54.96875q0 36.53125 10.640625 63.78122q10.65625 27.234375 33.109375 40.71875q22.46875 13.46875 48.640625 13.46875q31.828125 0 53.890625 -18.359375q22.078125 -18.359375 29.890625 -54.484344zm83.00781 100.390594l0 -286.3281l107.421906 0q32.8125 0 52.640625 8.6875q19.828125 8.6875 31.046875 26.765625q11.234375 18.0625 11.234375 37.78125q0 18.359375 -9.96875 34.578125q-9.953125 16.203125 -30.0625 26.171875q25.96875 7.609375 39.9375 25.96875q13.96875 18.359375 13.96875 43.359344q0 20.125 -8.5 37.40625q-8.5 17.28125 -21.0 26.65625q-12.5 9.375 -31.34375 14.171875q-18.84375 4.78125 -46.1875 4.78125l-109.18753 0zm37.890625 -166.0156l61.921906 0q25.1875 0 36.125 -3.328125q14.453125 -4.296875 21.78125 -14.25q7.328125 -9.96875 7.328125 -25.0q0 -14.265625 -6.84375 -25.09375q-6.828125 -10.84375 -19.53125 -14.84375q-12.6875 -4.015625 -43.546875 -4.015625l-57.234406 0l0 86.53125zm0 132.21872l71.296906 0q18.359375 0 25.78125 -1.359375q13.078125 -2.34375 21.859375 -7.8125q8.796875 -5.46875 14.453125 -15.921875q5.671875 -10.453125 5.671875 -24.125q0 -16.015594 -8.203125 -27.828094q-8.203125 -11.8125 -22.75 -16.59375q-14.546875 -4.796875 -41.890625 -4.796875l-66.21878 0l0 98.43747z" fill-rule="nonzero"></path></g></svg>

